<?xml version="1.0" encoding="UTF-8"?>
<svg version="1.1" xmlns="http://www.w3.org/2000/svg" width="1000" height="1000">
<path d="M0 0 C1.01809753 0.00368591 1.01809753 0.00368591 2.0567627 0.00744629 C13.58217324 0.08217324 13.58217324 0.08217324 14.8125 1.3125 C14.91490276 3.05701633 14.94649769 4.80571059 14.9511652 6.55322361 C14.95663964 7.69720004 14.96211409 8.84117646 14.96775442 10.01981884 C14.96922158 11.92965169 14.96922158 11.92965169 14.97071838 13.87806702 C14.97528071 15.23259788 14.98028024 16.58712733 14.98568195 17.9416551 C14.99932376 21.68428175 15.00669975 25.42689926 15.01310861 29.16954434 C15.0210923 33.20314363 15.03480265 37.23672383 15.04782104 41.27030945 C15.07251399 49.20252806 15.0918856 57.13475144 15.10957379 65.06698842 C15.13055731 74.37516431 15.15701814 83.68332226 15.18374526 92.99148314 C15.23155081 109.69817017 15.27472747 126.40486596 15.31518555 143.11157227 C15.35402211 159.14576039 15.39542278 175.17993862 15.44018555 191.21411133 C15.44290982 192.19016884 15.44563409 193.16622635 15.44844092 194.17186136 C15.45941419 198.1011863 15.47039323 202.03051123 15.48138306 205.95983613 C15.52717456 222.35908825 15.57083354 238.75834617 15.6141727 255.15760493 C15.6238796 258.82979245 15.63365796 262.50197977 15.64350247 266.17416692 C15.70535252 289.27316225 15.75908714 312.37215459 15.79851447 335.47119965 C15.80789258 340.89921399 15.81863131 346.32722413 15.83011473 351.7552344 C15.85013415 361.23445776 15.86656691 370.71367467 15.87660478 380.19291426 C15.88143888 384.69657407 15.88787249 389.20021688 15.8984977 393.70386708 C15.90824619 397.87142785 15.9133071 402.03896716 15.91463454 406.20653887 C15.91594153 407.73708679 15.91897244 409.26763431 15.92381208 410.79817514 C15.9301341 412.88292026 15.9303378 414.96757697 15.92893887 417.05232906 C15.93060572 418.21997136 15.93227258 419.38761366 15.93398994 420.59063905 C15.8125 423.3125 15.8125 423.3125 14.8125 425.3125 C-6.3075 425.3125 -27.4275 425.3125 -49.1875 425.3125 C-50.01832601 420.32754393 -50.32395175 415.77110724 -50.30102539 410.76329041 C-50.30117425 409.91507251 -50.30132311 409.06685461 -50.30147648 408.19293314 C-50.30078308 405.35507776 -50.29294407 402.51728747 -50.28515625 399.67944336 C-50.28323594 397.63962846 -50.28177267 395.59981309 -50.2807312 393.55999756 C-50.27756707 389.15835133 -50.27129126 384.75672425 -50.26266479 380.35508537 C-50.24905351 373.32702153 -50.24322562 366.29896395 -50.23852539 359.27088928 C-50.22648736 343.00950223 -50.20478053 326.74813084 -50.18229675 310.48675537 C-50.15697583 292.16695444 -50.13599606 273.84715937 -50.125 255.52734375 C-50.1242107 254.34705455 -50.1234214 253.16676536 -50.12260818 251.95070982 C-50.09966333 215.06155095 -50.30201418 178.19218951 -51.1875 141.3125 C-51.38666016 142.57769974 -51.58582031 143.84289948 -51.79101562 145.1464386 C-52.05857975 146.84412859 -52.32615867 148.54181625 -52.59375 150.23950195 C-52.72426758 151.06889534 -52.85478516 151.89828873 -52.98925781 152.75281525 C-54.22525083 160.59090405 -55.5078701 168.42087272 -56.8125 176.24780273 C-57.18926751 178.51061539 -57.56341588 180.77385175 -57.9375 183.03710938 C-59.25725808 190.98419896 -60.6582269 198.90901301 -62.16467285 206.8228302 C-63.13103335 211.92956915 -63.95800231 217.04235999 -64.6875 222.1875 C-65.60512771 228.46972049 -66.56625651 234.73997466 -67.625 241 C-68.83222157 248.13960253 -69.98815398 255.28635406 -71.125 262.4375 C-72.60829055 271.75890741 -74.13231985 281.07260931 -75.70483398 290.37939453 C-77.12689151 298.83243998 -78.45539397 307.29972009 -79.78683472 315.76739502 C-80.99631712 323.45026601 -82.21710162 331.13135676 -83.4375 338.8125 C-83.58546021 339.74383759 -83.73342041 340.67517517 -83.88586426 341.63473511 C-86.48079478 357.95832541 -89.12074347 374.27434996 -91.79003906 390.5859375 C-91.99472809 391.83816605 -91.99472809 391.83816605 -92.20355225 393.11569214 C-92.47085354 394.75047533 -92.73862333 396.385182 -93.00689697 398.01980591 C-93.69980074 402.25735257 -94.37305576 406.49710366 -95.02148438 410.74169922 C-95.15693665 411.62240585 -95.29238892 412.50311249 -95.4319458 413.4105072 C-95.69100064 415.10117827 -95.94663703 416.79237759 -96.19842529 418.48414612 C-97.07641904 424.20141904 -97.07641904 424.20141904 -98.1875 425.3125 C-99.96741924 425.40620624 -101.75106739 425.42994271 -103.53344727 425.42602539 C-104.6745546 425.42594986 -105.81566193 425.42587433 -106.99134827 425.42579651 C-108.2329924 425.42063522 -109.47463654 425.41547394 -110.75390625 425.41015625 C-112.64954567 425.40803383 -112.64954567 425.40803383 -114.58348083 425.40586853 C-117.94874889 425.40120582 -121.3139499 425.3922148 -124.67919922 425.38116455 C-128.1109967 425.37094846 -131.54280109 425.36637049 -134.97460938 425.36132812 C-141.71225824 425.3502738 -148.44987525 425.3335171 -155.1875 425.3125 C-156.67545196 422.44439831 -157.54905217 420.0750969 -158.046875 416.875 C-158.1900415 415.99400635 -158.33320801 415.1130127 -158.48071289 414.20532227 C-158.63145264 413.25069092 -158.78219238 412.29605957 -158.9375 411.3125 C-160.64670512 400.97160108 -162.73318248 390.7435324 -164.99316406 380.50976562 C-166.45898624 373.84194267 -167.80325567 367.16116541 -169.04341125 360.44819641 C-170.29433316 353.68740434 -171.64457284 346.94804459 -173.00463867 340.20849609 C-175.61781538 327.253153 -178.17652721 314.28801435 -180.6875 301.3125 C-183.87483857 284.84813776 -187.15058 268.40224197 -190.45458984 251.9609375 C-191.2077313 248.21178829 -191.95862111 244.46219668 -192.70793152 240.71228027 C-193.14452514 238.52754794 -193.58135088 236.34286227 -194.01831055 234.15820312 C-194.19275192 233.28603149 -194.3671933 232.41385986 -194.54692078 231.51525879 C-194.75831192 230.45834839 -194.96970306 229.40143799 -195.1875 228.3125 C-195.76302568 225.4348968 -196.33854372 222.55729208 -196.9140625 219.6796875 C-197.22656238 218.11718748 -197.53906238 216.55468748 -197.8515625 214.9921875 C-199.296875 207.765625 -200.7421875 200.5390625 -202.1875 193.3125 C-202.19173194 194.50209037 -202.19596388 195.69168074 -202.20032406 196.9173193 C-202.30090003 225.12674779 -202.40659007 253.33615373 -202.51861694 281.54553911 C-202.53238727 285.01416459 -202.54611426 288.48279025 -202.55981445 291.95141602 C-202.56254276 292.64198572 -202.56527106 293.33255542 -202.56808204 294.04405148 C-202.61221215 305.24015715 -202.65282676 316.43627299 -202.69215261 327.63239645 C-202.73255279 339.11221325 -202.77678118 350.59200935 -202.82437855 362.07179886 C-202.85100552 368.5233638 -202.87585915 374.97492491 -202.89657402 381.42651176 C-202.91610134 387.4912503 -202.94023317 393.55595259 -202.96799088 399.62065887 C-202.97738208 401.85362403 -202.98504984 404.08659716 -202.99091911 406.31957436 C-202.99914529 409.35395384 -203.01341183 412.3882445 -203.02928162 415.42259216 C-203.03025972 416.31848838 -203.03123783 417.21438459 -203.03224558 418.13742918 C-203.07337879 424.19837879 -203.07337879 424.19837879 -204.1875 425.3125 C-206.02322631 425.41155152 -207.86277575 425.44049207 -209.70117188 425.44189453 C-210.87909302 425.44504669 -212.05701416 425.44819885 -213.27062988 425.45144653 C-214.55288452 425.4494223 -215.83513916 425.44739807 -217.15625 425.4453125 C-218.46203003 425.44626923 -219.76781006 425.44722595 -221.11315918 425.44821167 C-223.88062722 425.44968833 -226.64806304 425.44753511 -229.41552734 425.44287109 C-232.97012649 425.43717381 -236.52465014 425.44045298 -240.07924652 425.44644356 C-243.45908714 425.45091747 -246.83890723 425.44778886 -250.21875 425.4453125 C-251.50100464 425.44733673 -252.78325928 425.44936096 -254.10437012 425.45144653 C-255.28229126 425.44829437 -256.4602124 425.44514221 -257.67382812 425.44189453 C-258.71671997 425.44109894 -259.75961182 425.44030334 -260.83410645 425.43948364 C-263.1875 425.3125 -263.1875 425.3125 -264.1875 424.3125 C-264.28851543 422.54772715 -264.31858103 420.77887301 -264.32172108 419.01121426 C-264.32617892 417.85418607 -264.33063676 416.69715789 -264.33522969 415.50506824 C-264.33504533 414.21775226 -264.33486097 412.93043628 -264.33467102 411.60411072 C-264.33796778 410.23538961 -264.34169295 408.86666949 -264.3458125 407.49795061 C-264.35586254 403.71892933 -264.35955412 399.93992393 -264.36220181 396.16089118 C-264.36609615 392.09186284 -264.37567525 388.02284718 -264.38441467 383.9538269 C-264.40420669 374.11652387 -264.41425003 364.27921976 -264.42314246 354.44190177 C-264.42752202 349.81210805 -264.4328898 345.18231547 -264.43813133 340.55252266 C-264.45514849 325.16549765 -264.4696423 309.77847337 -264.47688007 294.39144039 C-264.47879006 290.39548174 -264.48071037 286.39952309 -264.48266602 282.40356445 C-264.48314976 281.41035372 -264.4836335 280.41714299 -264.4841319 279.39383496 C-264.49243072 263.30731634 -264.51776297 247.22087213 -264.55024669 231.134386 C-264.58330886 214.62709306 -264.60132819 198.11983792 -264.60452431 181.61251169 C-264.6066905 172.34096675 -264.61545465 163.06953021 -264.64098549 153.7980175 C-264.66268122 145.90079469 -264.67074858 138.00370658 -264.66101871 130.10645735 C-264.65647033 126.0770988 -264.65839111 122.04801825 -264.67778015 118.01869774 C-264.69538716 114.32780014 -264.69443449 110.63738383 -264.67888286 106.94648129 C-264.67537792 104.98301106 -264.69155173 103.01953592 -264.70848733 101.05613559 C-264.6479103 92.75919862 -263.47776598 87.623883 -258.375 80.9375 C-253.44693447 77.27665132 -247.64397881 77.05923899 -241.69506836 77.0378418 C-240.98191971 77.03273087 -240.26877106 77.02761993 -239.53401184 77.02235413 C-237.19836828 77.0085583 -234.86302297 77.00940672 -232.52734375 77.01171875 C-230.8926228 77.0078274 -229.25790286 77.00349182 -227.6231842 76.99873352 C-224.20635694 76.99129367 -220.78963306 76.99154711 -217.37280273 76.99682617 C-213.00264059 77.00262957 -208.63290107 76.98565818 -204.2628088 76.9624815 C-200.89040164 76.94772732 -197.51809602 76.94687454 -194.14566231 76.94999123 C-192.5345736 76.94947925 -190.92347902 76.94426471 -189.3124218 76.93417931 C-187.05818261 76.92179383 -184.8047639 76.92861755 -182.55053711 76.94018555 C-181.27037216 76.93955612 -179.99020721 76.9389267 -178.67124939 76.9382782 C-173.23428966 77.52231242 -170.14347946 79.21995205 -166.5625 83.3125 C-163.51897368 87.94607373 -161.8709413 93.06541024 -160.1875 98.3125 C-159.92066406 99.116875 -159.65382813 99.92125 -159.37890625 100.75 C-157.92058673 105.3440843 -156.79621513 109.96440173 -155.80078125 114.6796875 C-155.5385376 115.91726807 -155.27629395 117.15484863 -155.00610352 118.42993164 C-154.60089478 120.35180298 -154.60089478 120.35180298 -154.1875 122.3125 C-153.66164386 124.78779984 -153.1356006 127.26305993 -152.609375 129.73828125 C-152.05193638 132.36715647 -151.49464855 134.99606332 -150.9375 137.625 C-150.63217743 139.06510755 -150.3268385 140.50521164 -150.02148438 141.9453125 C-149.38991131 144.92397761 -148.7584071 147.9026573 -148.12695312 150.88134766 C-146.79192223 157.17867945 -145.4560216 163.47582673 -144.12014771 169.77297974 C-143.68675485 171.81601268 -143.2534046 173.85905466 -142.82006836 175.90209961 C-141.47974804 182.22122264 -140.13923467 188.54030452 -138.79801941 194.85923767 C-138.03191767 198.46863823 -137.26594078 202.07806528 -136.5 205.6875 C-136.35112335 206.38902191 -136.2022467 207.09054382 -136.04885864 207.81332397 C-134.40028529 215.58236011 -132.75625245 223.35230719 -131.125 231.125 C-127.49244729 248.40316243 -123.83745417 265.67568665 -119.88012695 282.8828125 C-118.4254948 289.21467048 -117.06152825 295.55927982 -115.765625 301.92578125 C-115.4214231 304.25216603 -115.4214231 304.25216603 -114.1875 305.3125 C-113.72379986 303.10528734 -113.26692608 300.89664067 -112.8125 298.6875 C-112.55726563 297.45773437 -112.30203125 296.22796875 -112.0390625 294.9609375 C-111.09269232 290.06479006 -110.44012768 285.13190976 -109.75 280.19433594 C-108.73573855 273.19487541 -107.54798534 266.22430297 -106.375 259.25 C-106.10948466 257.66447829 -105.8440233 256.07894754 -105.57861328 254.4934082 C-103.164075 240.09127843 -100.6893425 225.69971334 -98.1875 211.3125 C-97.83461154 209.27995206 -97.48174611 207.24740013 -97.12890625 205.21484375 C-96.79432193 203.28905362 -96.45968774 201.36327216 -96.125 199.4375 C-95.96515625 198.51743164 -95.8053125 197.59736328 -95.640625 196.64941406 C-94.80682044 191.85503786 -93.96749297 187.0617009 -93.12109375 182.26953125 C-91.47395222 172.91587809 -89.899002 163.57918571 -88.6171875 154.16796875 C-88.12972124 150.92853385 -87.43010205 147.78012562 -86.6796875 144.59375 C-85.88134247 140.89348413 -85.37241121 137.15333924 -84.81640625 133.41015625 C-84.02449612 128.15889432 -83.13036625 122.92450839 -82.25 117.6875 C-81.16063257 111.20618799 -80.086343 104.72452136 -79.09130859 98.22802734 C-77.59375035 88.45212137 -75.79548862 78.74406299 -73.95556641 69.02709961 C-72.83545147 63.0467745 -71.83585963 57.10480689 -71.125 51.0625 C-69.28469765 36.01021567 -65.20500376 23.2564914 -53.5625 13 C-37.7583645 1.77074583 -18.86710979 -0.07276818 0 0 Z " fill="#FDFEFD" transform="translate(596.1875,288.6875)"/>
<path d="M0 0 C6.94584506 -0.08695894 11.19034901 1.69267964 16.93359375 5.46875 C17.94421875 6.025625 18.95484375 6.5825 19.99609375 7.15625 C20.95515625 7.8059375 20.95515625 7.8059375 21.93359375 8.46875 C21.93359375 9.12875 21.93359375 9.78875 21.93359375 10.46875 C26.80863769 12.0035732 31.24210834 12.81417511 36.37109375 13.1796875 C37.77478464 13.2911004 39.17842928 13.40309733 40.58203125 13.515625 C42.76033721 13.68250739 44.93869772 13.84410365 47.11816406 13.99511719 C63.62808029 15.16323654 63.62808029 15.16323654 68.93359375 20.46875 C69.28757303 22.44092028 69.59097125 24.42224185 69.87109375 26.40625 C70.04898438 27.57800781 70.226875 28.74976563 70.41015625 29.95703125 C70.73239529 32.11891854 71.04240769 34.28272092 71.33203125 36.44921875 C72.03437859 41.72383236 72.03437859 41.72383236 75.49609375 45.53125 C76.30046875 45.840625 77.10484375 46.15 77.93359375 46.46875 C79.74475331 48.27990956 79.31558823 51.08153227 79.49609375 53.53125 C79.57988281 54.63597656 79.66367187 55.74070312 79.75 56.87890625 C79.81058594 57.73355469 79.87117187 58.58820313 79.93359375 59.46875 C84.87222194 61.47089656 88.76959631 62.55872026 94.14208984 62.70849609 C101.76192266 62.9379071 108.33635883 63.24903888 114.93359375 67.46875 C115.77921875 68.005 116.62484375 68.54125 117.49609375 69.09375 C117.97046875 69.5475 118.44484375 70.00125 118.93359375 70.46875 C118.93359375 71.12875 118.93359375 71.78875 118.93359375 72.46875 C119.92359375 72.79875 120.91359375 73.12875 121.93359375 73.46875 C126.089151 79.62596521 126.69842546 86.56739465 127.12109375 93.78125 C127.22454102 95.18600586 127.22454102 95.18600586 127.33007812 96.61914062 C127.56156649 99.90108313 127.75096923 103.18372218 127.93359375 106.46875 C127.9713089 107.11827637 128.00902405 107.76780273 128.04788208 108.43701172 C128.95583484 124.22429081 129.40115798 140.02881174 129.86352539 155.83398438 C129.97388127 159.60541457 130.08796089 163.3767216 130.20310307 167.14800835 C130.29299368 170.10630879 130.38086597 173.06466672 130.46816826 176.02304459 C130.50941084 177.41261758 130.5512521 178.80217297 130.59376717 180.19170761 C130.72849549 184.61704259 130.83489391 189.04248413 130.93359375 193.46875 C130.97652557 194.76379456 131.0194574 196.05883911 131.06369019 197.39312744 C131.0909317 198.64156433 131.11817322 199.89000122 131.14624023 201.17626953 C131.1774144 202.2909964 131.20858856 203.40572327 131.2407074 204.55422974 C130.89519783 207.83312876 130.27828658 209.18028056 127.93359375 211.46875 C124.93359375 211.90625 124.93359375 211.90625 121.93359375 211.46875 C119.79589337 209.87092107 119.03421966 208.93375352 118.46566772 206.30641174 C118.42205109 205.46738815 118.37843445 204.62836456 118.33349609 203.76391602 C118.27688812 202.80763809 118.22028015 201.85136017 118.16195679 200.86610413 C118.11495636 199.82876633 118.06795593 198.79142853 118.01953125 197.72265625 C117.95955963 196.64233627 117.89958801 195.5620163 117.83779907 194.44895935 C117.6482054 190.97694913 117.47816308 187.50429003 117.30859375 184.03125 C117.18747809 181.75709292 117.06509558 179.48300293 116.94140625 177.20898438 C116.64199869 171.64894255 116.36253455 166.08809883 116.08834839 160.52676392 C115.9472936 157.73946457 115.79512013 154.95312103 115.63696289 152.16674805 C115.14892202 143.41473854 114.85408011 134.68351386 114.7578125 125.91796875 C114.74578796 124.95089493 114.73376343 123.98382111 114.72137451 122.98744202 C114.6730337 119.03302735 114.62518014 115.07895727 114.60766602 111.12426758 C114.59219872 108.18000772 114.55210407 105.2369177 114.5078125 102.29296875 C114.51067513 100.96479378 114.51067513 100.96479378 114.51359558 99.60978699 C114.38022787 92.84997854 112.83850779 88.37366404 107.93359375 83.46875 C102.02443349 81.62213742 93.83297205 81.56572474 87.93359375 83.46875 C86.60884968 86.11823815 87.03236664 87.72071302 87.33984375 90.6640625 C88.01191587 97.88668366 88.23448779 105.09481825 88.43359375 112.34375 C88.50376445 114.88288987 88.57667009 117.42195567 88.65234375 119.9609375 C88.68263672 121.06808105 88.71292969 122.17522461 88.74414062 123.31591797 C88.87179536 126.80704693 89.15506102 130.27828306 89.43359375 133.76037598 C89.98926253 141.49574702 90.09976008 149.20342205 90.12304688 156.95556641 C90.13101683 158.45272541 90.1394068 159.94988222 90.1481781 161.44703674 C90.16608499 164.64810147 90.18115553 167.84916183 90.19395447 171.05025101 C90.21450342 176.16303737 90.24212238 181.27577197 90.27062988 186.38851929 C90.32537887 196.37132389 90.37350007 206.35415465 90.42057037 216.33699799 C90.49229264 231.51896696 90.56819979 246.70090703 90.65234375 261.8828125 C90.65705012 262.74700263 90.66175649 263.61119276 90.66660547 264.50157046 C90.78612275 286.325213 91.00996318 308.13545184 91.59213257 329.95249939 C92.0482397 347.27188464 92.08695339 364.58823256 92.06396484 381.9128418 C92.05807467 386.39999419 92.0616946 390.88708927 92.06753731 395.37423992 C92.0711246 398.88703358 92.07001615 402.39981315 92.06740952 405.91260719 C92.06674482 407.57247741 92.06755259 409.23234893 92.06988907 410.89221764 C92.07240517 413.16475341 92.06859894 415.43718863 92.06298828 417.7097168 C92.06219269 418.99597458 92.06139709 420.28223236 92.06057739 421.60746765 C91.93359375 424.46875 91.93359375 424.46875 90.93359375 425.46875 C89.27833552 425.567038 87.61886703 425.59506976 85.96069336 425.59573364 C84.88375214 425.59855347 83.80681091 425.60137329 82.69723511 425.60427856 C81.5055069 425.60225433 80.31377869 425.6002301 79.0859375 425.59814453 C77.21544235 425.60077301 77.21544235 425.60077301 75.30715942 425.60345459 C71.87748771 425.60711289 68.44787596 425.60623961 65.01820755 425.6030755 C61.4365353 425.60055161 57.8548657 425.60288952 54.27319336 425.60446167 C48.25731951 425.60628328 42.24145792 425.60387728 36.22558594 425.59912109 C29.26087048 425.59367849 22.29618429 425.59544115 15.33146954 425.6009475 C9.36205386 425.60547887 3.39264701 425.60612906 -2.57676983 425.60350883 C-6.14657255 425.60194619 -9.71636149 425.60175193 -13.28616333 425.60504532 C-17.26370388 425.60845825 -21.24121139 425.60373389 -25.21875 425.59814453 C-27.00634232 425.60118088 -27.00634232 425.60118088 -28.83004761 425.60427856 C-30.44545944 425.60004883 -30.44545944 425.60004883 -32.09350586 425.59573364 C-33.03520126 425.59535662 -33.97689667 425.59497959 -34.9471283 425.59459114 C-37.06640625 425.46875 -37.06640625 425.46875 -38.06640625 424.46875 C-38.17665961 421.90821824 -38.22137175 419.37409415 -38.22462463 416.81257629 C-38.22956314 415.99923812 -38.23450165 415.18589995 -38.23958981 414.34791517 C-38.25506252 411.59498271 -38.26335754 408.84207391 -38.27172852 406.08911133 C-38.28130049 404.11776875 -38.29130205 402.14642822 -38.30170155 400.17508984 C-38.32891387 394.77035085 -38.34984721 389.365603 -38.36969137 383.9608326 C-38.39173431 378.23209197 -38.41934138 372.50337791 -38.44619751 366.7746582 C-38.50271419 354.47998157 -38.55174271 342.1852821 -38.59923935 329.89056778 C-38.62854748 322.3197297 -38.65963449 314.74889958 -38.69107056 307.17807007 C-38.81696266 276.75908492 -38.93081031 246.34007049 -39.0340752 215.9210003 C-39.05730912 209.08535147 -39.08135975 202.24970611 -39.1060791 195.4140625 C-39.16646532 178.6283756 -39.21838755 161.8427629 -39.24264526 145.05697632 C-39.24921634 140.56120766 -39.26006456 136.06548219 -39.27468872 131.56973267 C-39.29086721 126.4736016 -39.29755734 121.37755829 -39.29566574 116.28140259 C-39.29645345 114.50268075 -39.30049329 112.72395644 -39.30827713 110.94525146 C-39.3179713 108.59725996 -39.31536353 106.24960724 -39.30932617 103.90161133 C-39.31075119 102.62055008 -39.31217621 101.33948883 -39.31364441 100.01960754 C-39.05176481 96.25846827 -38.18058828 93.06020136 -37.06640625 89.46875 C-36.74108633 86.32302298 -36.74108633 86.32302298 -36.72265625 83.16796875 C-36.69300781 82.02650391 -36.66335938 80.88503906 -36.6328125 79.70898438 C-36.58817672 77.32097034 -36.54391181 74.93294934 -36.5 72.54492188 C-36.47035156 71.40990234 -36.44070313 70.27488281 -36.41015625 69.10546875 C-36.39146484 68.07123779 -36.37277344 67.03700684 -36.35351562 65.97143555 C-36.06640625 63.46875 -36.06640625 63.46875 -34.06640625 61.46875 C-33.07640625 61.46875 -32.08640625 61.46875 -31.06640625 61.46875 C-31.02902344 60.73269531 -30.99164062 59.99664062 -30.953125 59.23828125 C-30.26488317 49.02261324 -30.26488317 49.02261324 -27.06640625 45.46875 C-24.87890625 44.65625 -24.87890625 44.65625 -23.06640625 44.46875 C-23.24816406 43.64632812 -23.42992187 42.82390625 -23.6171875 41.9765625 C-24.13057016 37.96771358 -23.79556657 34.31592568 -23.25390625 30.34375 C-23.17076172 29.64121094 -23.08761719 28.93867188 -23.00195312 28.21484375 C-22.12650537 21.45408662 -22.12650537 21.45408662 -20.06640625 18.46875 C-15.15717749 15.70730882 -10.78996305 15.03902471 -5.203125 14.6796875 C-3.01560267 14.59217288 -3.01560267 14.59217288 -1.06640625 13.46875 C-1.56140625 12.9325 -2.05640625 12.39625 -2.56640625 11.84375 C-4.4776787 8.81756863 -4.44118868 6.99170483 -4.06640625 3.46875 C-2.06640625 0.46875 -2.06640625 0.46875 0 0 Z M60.37109375 176.65625 C59.60152344 177.47996094 58.83195313 178.30367187 58.0390625 179.15234375 C57.34425781 179.91675781 56.64945313 180.68117188 55.93359375 181.46875 C52.60026042 184.80208333 49.26692708 188.13541667 45.93359375 191.46875 C44.78890625 192.8609375 44.78890625 192.8609375 43.62109375 194.28125 C40.65138163 196.69845754 38.9462016 197.07955777 35.1484375 196.83203125 C31.89849246 196.29897148 28.85101454 195.33241385 25.72265625 194.31640625 C21.58474568 193.05880598 17.37945656 192.23584119 13.14453125 191.37109375 C9.83957215 190.6834464 6.56380241 189.9012246 3.28515625 189.09765625 C2.2993457 188.86030762 1.31353516 188.62295898 0.29785156 188.37841797 C-1.67160026 187.9026226 -3.6385229 187.41621423 -5.60253906 186.91845703 C-6.51100586 186.7017334 -7.41947266 186.48500977 -8.35546875 186.26171875 C-9.16709473 186.0608667 -9.9787207 185.86001465 -10.81494141 185.65307617 C-13.50524387 185.43282261 -14.79801965 186.07284476 -17.06640625 187.46875 C-17.06640625 188.12875 -17.06640625 188.78875 -17.06640625 189.46875 C-19.04640625 190.45875 -19.04640625 190.45875 -21.06640625 191.46875 C-20.35666343 194.69054044 -20.35666343 194.69054044 -17.3984375 196.046875 C-16.23699219 196.59859375 -15.07554687 197.1503125 -13.87890625 197.71875 C-12.59622331 198.33696816 -11.31367493 198.95546556 -10.03125 199.57421875 C-9.37237793 199.88794434 -8.71350586 200.20166992 -8.03466797 200.52490234 C-3.82112938 202.54543573 0.34088424 204.67036782 4.515625 206.76953125 C6.81526978 207.91278322 9.12553595 209.0348894 11.4453125 210.13671875 C12.53457031 210.65878906 13.62382813 211.18085938 14.74609375 211.71875 C16.20982422 212.40710938 16.20982422 212.40710938 17.703125 213.109375 C19.93359375 214.46875 19.93359375 214.46875 20.93359375 217.46875 C20.04671875 218.17 19.15984375 218.87125 18.24609375 219.59375 C15.9946836 221.46025865 14.33584226 223.18605179 12.43359375 225.46875 C11.19609375 226.95375 11.19609375 226.95375 9.93359375 228.46875 C9.14984375 229.4175 8.36609375 230.36625 7.55859375 231.34375 C4.2010234 234.15494408 0.51043008 233.62620512 -3.62890625 233.40625 C-4.90894531 233.29152344 -6.18898438 233.17679688 -7.5078125 233.05859375 C-11.347459 233.50114357 -11.71430884 233.69412105 -14.03125 236.47265625 C-14.70285156 237.46136719 -15.37445312 238.45007813 -16.06640625 239.46875 C-13.77766452 240.80733524 -11.48570969 242.13976014 -9.19140625 243.46875 C-8.21494141 244.04109375 -8.21494141 244.04109375 -7.21875 244.625 C-3.86290424 246.74426156 -3.86290424 246.74426156 -0.06640625 247.46875 C0.18109375 248.479375 0.42859375 249.49 0.68359375 250.53125 C1.83020013 254.60253354 3.73100848 257.87119406 5.93359375 261.46875 C8.1853701 261.69910754 8.1853701 261.69910754 10.0703125 259.42578125 C12.45500786 255.64126472 12.12899799 253.56640586 11.74609375 249.15625 C11.5087752 244.18460713 11.65159665 240.72579681 15.05859375 236.84375 C16.98828125 235.0390625 16.98828125 235.0390625 18.93359375 233.46875 C19.49304688 232.99179687 20.0525 232.51484375 20.62890625 232.0234375 C22.05436154 230.82720115 23.49334589 229.64713461 24.93359375 228.46875 C26.74624425 226.30654383 26.74624425 226.30654383 27.93359375 224.46875 C31.53035797 225.88756575 32.68378187 227.27381537 34.265625 230.765625 C34.66845703 231.63574219 35.07128906 232.50585938 35.48632812 233.40234375 C35.90205078 234.33175781 36.31777344 235.26117187 36.74609375 236.21875 C37.626445 238.13074248 38.50795953 240.04219977 39.390625 241.953125 C39.82068848 242.89220703 40.25075195 243.83128906 40.69384766 244.79882812 C42.36383928 248.3953284 44.13271838 251.93639527 45.93359375 255.46875 C47.77881875 259.08822982 49.48229734 262.6730517 50.93359375 266.46875 C54.09896133 265.90238289 55.76367168 265.15819225 57.83203125 262.67578125 C60.1758472 259.1402707 60.05376208 256.84590672 59.28515625 252.73046875 C58.74213765 250.53078323 58.1647628 248.33937727 57.55859375 246.15625 C57.26637939 245.00648682 56.97416504 243.85672363 56.6730957 242.67211914 C55.79610033 239.26004786 54.87506203 235.86354086 53.93359375 232.46875 C53.67594238 231.53740234 53.41829102 230.60605469 53.15283203 229.64648438 C51.8587407 224.98370381 51.8587407 224.98370381 50.49658203 220.34057617 C49.92052547 218.39294486 49.41390055 216.44204693 48.93359375 214.46875 C48.73459473 213.73930176 48.5355957 213.00985352 48.33056641 212.25830078 C47.62516812 208.83657086 47.31739501 206.53932924 49.1003418 203.44165039 C50.93114528 201.29633997 52.86738453 199.38855669 54.93359375 197.46875 C55.68769531 196.7375293 56.44179688 196.00630859 57.21875 195.25292969 C60.43965227 192.13947927 63.67522806 189.04477014 66.96484375 186.00390625 C67.74859375 185.24722656 68.53234375 184.49054688 69.33984375 183.7109375 C70.41202148 182.70329346 70.41202148 182.70329346 71.50585938 181.67529297 C73.25325546 179.45668174 73.25325546 179.45668174 72.72070312 176.26611328 C72.21222633 173.58433272 72.21222633 173.58433272 70.93359375 172.46875 C65.73266335 171.86160904 63.85311603 172.83786063 60.37109375 176.65625 Z " fill="#FDFEFD" transform="translate(674.06640625,288.53125)"/>
<path d="M0 0 C3.61976129 0.04014416 7.23951497 0.07457533 10.859375 0.10449219 C15.30081009 0.14125109 19.74204944 0.18748918 24.18331718 0.24068069 C25.85824692 0.25915677 27.53321711 0.27428956 29.20820808 0.28596115 C31.52296664 0.30275594 33.8372647 0.33174239 36.15185547 0.36376953 C37.46416641 0.3770932 38.77647736 0.39041687 40.1285553 0.40414429 C43.30004883 0.68261719 43.30004883 0.68261719 46.30004883 2.68261719 C49.02050736 11.7698322 48.61256611 21.82130355 48.56079102 31.23242188 C48.54996643 33.57545257 48.5608056 35.91773303 48.57348633 38.26074219 C48.57216615 39.77376469 48.5696067 41.28678672 48.56567383 42.79980469 C48.56972229 43.48847626 48.57377075 44.17714783 48.57794189 44.88668823 C48.52775298 50.12694017 48.27950821 55.7031578 44.42504883 59.55761719 C40.10133432 61.84664252 36.14177153 61.80640853 31.28924561 61.8028717 C30.5834569 61.80372613 29.87766819 61.80458055 29.15049195 61.80546087 C26.78593039 61.80710776 24.42143979 61.80160723 22.05688477 61.79614258 C20.36173504 61.79586051 18.6665852 61.79601882 16.97143555 61.79658508 C12.36850274 61.79687229 7.76559594 61.79098788 3.16266918 61.78401113 C-1.64731019 61.77776489 -6.45729015 61.77717278 -11.26727295 61.77598572 C-20.37613228 61.77287616 -29.48497963 61.76466781 -38.59383368 61.75463623 C-48.96373961 61.74346347 -59.3336461 61.7379617 -69.70355654 61.73294079 C-91.03569477 61.7224849 -112.36782222 61.70489269 -133.69995117 61.68261719 C-133.69957145 62.45245042 -133.69919173 63.22228366 -133.6988005 64.01544517 C-133.6764463 109.5922616 -133.65927671 155.16907744 -133.64888584 200.74589824 C-133.64763506 206.2123534 -133.64634075 211.67880854 -133.64501953 217.14526367 C-133.64462607 218.77774587 -133.64462607 218.77774587 -133.64422465 220.44320751 C-133.63986751 238.08968436 -133.63197972 255.73615798 -133.62279838 273.3826329 C-133.61346307 291.47526607 -133.60789582 309.56789753 -133.60586268 327.66053301 C-133.60448719 338.83417307 -133.60013524 350.00780396 -133.5920347 361.1814412 C-133.58676876 368.83260176 -133.58514653 376.48375756 -133.58644979 384.13491981 C-133.58709341 388.55620675 -133.58607299 392.97747763 -133.5807457 397.39876175 C-133.57591215 401.43952946 -133.57561223 405.48027017 -133.57905228 409.52103908 C-133.57947801 410.98941917 -133.5781819 412.45780088 -133.57506799 413.92617773 C-133.57110464 415.90906344 -133.57379453 417.89195923 -133.57690334 419.87484646 C-133.57652362 420.98021234 -133.5761439 422.08557822 -133.57575268 423.22444004 C-133.69995117 425.68261719 -133.69995117 425.68261719 -134.69995117 426.68261719 C-136.78070527 426.78205691 -138.86486965 426.81061315 -140.94799805 426.81201172 C-141.60002701 426.81376404 -142.25205597 426.81551636 -142.92384338 426.81732178 C-145.0888227 426.82173923 -147.25372096 426.8188027 -149.41870117 426.81542969 C-150.91703304 426.81610276 -152.4153648 426.81707281 -153.91369629 426.81832886 C-157.0577905 426.81980568 -160.20185635 426.81765177 -163.34594727 426.81298828 C-167.38481656 426.80729099 -171.42361941 426.81057008 -175.46248627 426.81656075 C-178.55760198 426.82016677 -181.65270182 426.81902758 -184.74781799 426.81643295 C-186.23743192 426.8157638 -187.72704727 426.81659171 -189.21665955 426.81891251 C-191.29511352 426.82143972 -193.37345848 426.81759751 -195.4519043 426.81201172 C-197.22942078 426.81081833 -197.22942078 426.81081833 -199.04284668 426.80960083 C-201.69995117 426.68261719 -201.69995117 426.68261719 -202.69995117 425.68261719 C-202.79766032 423.74872595 -202.82366419 421.81120437 -202.822999 419.87484646 C-202.82499005 418.60489942 -202.8269811 417.33495238 -202.82903248 416.0265221 C-202.82617888 414.59885289 -202.82323328 413.17118386 -202.82020569 411.74351501 C-202.82064126 410.24122444 -202.8215159 408.73893394 -202.82279485 407.23664385 C-202.82504262 403.08872072 -202.82101471 398.94082317 -202.81601679 394.7929033 C-202.81171649 390.32730315 -202.81315842 385.86170455 -202.81391907 381.39610291 C-202.81444457 373.65258884 -202.81129503 365.90908317 -202.80568123 358.16557121 C-202.79756978 346.96961802 -202.79495137 335.7736689 -202.79369324 324.57771308 C-202.79150216 306.41500629 -202.78484056 288.25230397 -202.77539062 270.08959961 C-202.76621795 252.44148786 -202.75913641 234.79337732 -202.75488281 217.14526367 C-202.75462009 216.05826001 -202.75435737 214.97125634 -202.75408668 213.85131317 C-202.75278169 208.39838187 -202.75151797 202.94545057 -202.75027478 197.49251926 C-202.73990042 152.2225488 -202.72228059 106.95258322 -202.69995117 61.68261719 C-203.688078 61.68927902 -203.688078 61.68927902 -204.69616699 61.69607544 C-211.57468489 61.74044581 -218.45316187 61.77054048 -225.33178711 61.79248047 C-227.89625704 61.80251563 -230.4607156 61.81614674 -233.02514648 61.83349609 C-236.71886001 61.8578534 -240.41242176 61.86912543 -244.10620117 61.87792969 C-245.24609497 61.88825226 -246.38598877 61.89857483 -247.5604248 61.90921021 C-254.78115047 61.9102197 -261.05698965 61.58329277 -267.57495117 58.18261719 C-273.5390845 51.16598975 -272.00125918 39.31946562 -271.94995117 30.68261719 C-271.95768555 29.38066406 -271.96541992 28.07871094 -271.97338867 26.73730469 C-271.93664337 8.54837906 -271.93664337 8.54837906 -267.69995117 3.12011719 C-263.85368824 0.3556157 -260.64729021 0.53036174 -256.05508423 0.5243988 C-255.25642075 0.51946083 -254.45775727 0.51452285 -253.63489187 0.50943524 C-250.94255053 0.49400599 -248.25023315 0.48568403 -245.55786133 0.47729492 C-243.63257638 0.46771854 -241.70729355 0.4577086 -239.78201294 0.44729614 C-234.53249844 0.42016282 -229.28297494 0.39918559 -224.03342867 0.37929416 C-218.52116055 0.3574031 -213.00891976 0.33001104 -207.49667358 0.30323792 C-198.21044122 0.25889905 -188.92419894 0.21815084 -179.63793945 0.17993164 C-166.63664102 0.12641883 -153.63537713 0.06666887 -140.6341126 0.00553596 C-40.98788647 -0.46095678 -40.98788647 -0.46095678 0 0 Z " fill="#FEFDFD" transform="translate(449.699951171875,288.3173828125)"/>
<path d="" fill="#FFFFE8" transform="translate(0,0)"/>
</svg>
